<svg width="24" height="24" viewBox="0 0 24 24" fill="none" xmlns="http://www.w3.org/2000/svg">
<path d="M12 0.172363C5.46875 0.172363 0.125 5.50424 0.125 12.0711C0.125 18.0086 4.47125 22.9367 10.1475 23.8274V15.5149H7.13125V12.0711H10.1475V9.44674C10.1475 6.46612 11.9169 4.82736 14.6363 4.82736C15.9306 4.82736 17.2844 5.05299 17.2844 5.05299V7.98611H15.7881C14.3156 7.98611 13.8525 8.90049 13.8525 9.83862V12.0711H17.1538L16.6194 15.5149H13.8525V23.8274C16.6508 23.3854 19.1989 21.9577 21.0368 19.8018C22.8747 17.646 23.8814 14.9041 23.875 12.0711C23.875 5.50424 18.5312 0.172363 12 0.172363Z" fill="white"/>
</svg>
