<svg width="24" height="24" viewBox="0 0 24 24" fill="none" xmlns="http://www.w3.org/2000/svg">
<path d="M23.1031 10.9313H12.2138V14.1731H19.9444C19.5525 18.6975 15.7881 20.6331 12.2256 20.6331C7.67752 20.6331 3.68752 17.0469 3.68752 12C3.68752 7.13125 7.48752 3.36687 12.2375 3.36687C15.9069 3.36687 18.0563 5.70625 18.0563 5.70625L20.3125 3.355C20.3125 3.355 17.415 0.125 12.1188 0.125C5.37377 0.125 0.160645 5.825 0.160645 12C0.160645 17.9969 5.06502 23.875 12.2969 23.875C18.65 23.875 23.2813 19.5169 23.2813 13.0806C23.2813 11.715 23.1031 10.9313 23.1031 10.9313Z" fill="white"/>
</svg>
