<svg width="46" height="46" viewBox="0 0 46 46" fill="none" xmlns="http://www.w3.org/2000/svg">
<path d="M43.5177 2.48259C42.1644 1.12926 38.3219 0.138428 33.4644 0.138428C26.021 0.138428 16.1852 2.45843 9.34603 9.29759C-1.98814 20.6559 -0.924803 40.0859 2.4827 43.5176C3.83603 44.8709 7.67853 45.8618 12.536 45.8618C19.9794 45.8618 29.8152 43.5418 36.6544 36.7026C47.9885 25.3443 46.9252 5.91426 43.5177 2.48259ZM12.7535 12.7534C19.1335 6.37343 28.0994 5.21343 32.1594 5.04426C27.2052 7.31593 21.381 10.9651 16.1852 16.1851C10.9652 21.4051 7.31603 27.2534 5.04436 32.2076C5.26186 26.2143 7.14686 18.3359 12.7535 12.7534ZM33.2469 33.2468C26.8669 39.6268 17.901 40.7868 13.841 40.9559C18.7952 38.6843 24.6194 35.0351 29.8152 29.8151C35.0352 24.5951 38.6844 18.7468 40.9802 13.7926C40.7385 19.7859 38.8535 27.6643 33.2469 33.2468Z" fill="white"/>
</svg>
