<svg width="7" height="10" viewBox="0 0 7 10" fill="none" xmlns="http://www.w3.org/2000/svg">
<mask id="path-1-inside-1_4530_1278" fill="white">
<path d="M1.93932 0L6.93932 5L1.93932 10L0.878662 8.93934L4.818 5L0.878662 1.06066L1.93932 0Z"/>
</mask>
<path d="M1.93932 0L6.93932 5L1.93932 10L0.878662 8.93934L4.818 5L0.878662 1.06066L1.93932 0Z" fill="#363636"/>
<path d="M6.93932 5L7.99998 6.06066L9.06064 5L7.99998 3.93934L6.93932 5ZM1.93932 0L2.99998 -1.06066L1.93932 -2.12132L0.878662 -1.06066L1.93932 0ZM1.93932 10L0.878662 11.0607L1.93932 12.1213L2.99998 11.0607L1.93932 10ZM0.878662 1.06066L-0.181998 -1.67164e-07L-1.24266 1.06066L-0.181998 2.12132L0.878662 1.06066ZM0.878662 8.93934L-0.181998 7.87868L-1.24266 8.93934L-0.181998 10L0.878662 8.93934ZM4.818 5L5.87866 6.06066L6.93932 5L5.87866 3.93934L4.818 5ZM7.99998 3.93934L2.99998 -1.06066L0.878662 1.06066L5.87866 6.06066L7.99998 3.93934ZM2.99998 11.0607L7.99998 6.06066L5.87866 3.93934L0.878662 8.93934L2.99998 11.0607ZM0.878662 -1.06066L-0.181998 -1.67164e-07L1.93932 2.12132L2.99998 1.06066L0.878662 -1.06066ZM-0.181998 10L0.878662 11.0607L2.99998 8.93934L1.93932 7.87868L-0.181998 10ZM3.75734 3.93934L-0.181998 7.87868L1.93932 10L5.87866 6.06066L3.75734 3.93934ZM-0.181998 2.12132L3.75734 6.06066L5.87866 3.93934L1.93932 -1.58579e-08L-0.181998 2.12132Z" fill="#363636" mask="url(#path-1-inside-1_4530_1278)"/>
</svg>
