<svg width="48" height="48" viewBox="0 0 48 48" fill="none" xmlns="http://www.w3.org/2000/svg">
<path d="M46.6948 41.0131L37.6085 31.9267C37.1983 31.5166 36.6424 31.2888 36.0591 31.2888H34.5736C37.089 28.0716 38.5836 24.0251 38.5836 19.6232C38.5836 9.1516 30.0988 0.666748 19.6271 0.666748C9.1555 0.666748 0.670654 9.1516 0.670654 19.6232C0.670654 30.0949 9.1555 38.5797 19.6271 38.5797C24.0291 38.5797 28.0755 37.0851 31.2927 34.5697V36.0552C31.2927 36.6385 31.5205 37.1944 31.9306 37.6045L41.017 46.6909C41.8737 47.5476 43.2589 47.5476 44.1065 46.6909L46.6857 44.1117C47.5424 43.255 47.5424 41.8698 46.6948 41.0131ZM19.6271 31.2888C13.1838 31.2888 7.96161 26.0757 7.96161 19.6232C7.96161 13.1798 13.1746 7.9577 19.6271 7.9577C26.0705 7.9577 31.2927 13.1707 31.2927 19.6232C31.2927 26.0666 26.0796 31.2888 19.6271 31.2888Z" fill="#006633"/>
</svg>
