<svg width="34" height="34" viewBox="0 0 34 34" fill="none" xmlns="http://www.w3.org/2000/svg">
<path d="M16.9833 0.333008C7.78333 0.333008 0.333332 7.79967 0.333332 16.9997C0.333332 26.1997 7.78333 33.6663 16.9833 33.6663C26.2 33.6663 33.6667 26.1997 33.6667 16.9997C33.6667 7.79967 26.2 0.333008 16.9833 0.333008ZM17 30.333C9.63333 30.333 3.66667 24.3663 3.66667 16.9997C3.66667 9.63301 9.63333 3.66634 17 3.66634C24.3667 3.66634 30.3333 9.63301 30.3333 16.9997C30.3333 24.3663 24.3667 30.333 17 30.333ZM16.6333 8.66634H16.5333C15.8667 8.66634 15.3333 9.19967 15.3333 9.86634V17.733C15.3333 18.3163 15.6333 18.8663 16.15 19.1663L23.0667 23.3163C23.6333 23.6497 24.3667 23.483 24.7 22.9163C25.05 22.3497 24.8667 21.5997 24.2833 21.2663L17.8333 17.433V9.86634C17.8333 9.19967 17.3 8.66634 16.6333 8.66634Z" fill="black"/>
</svg>
