<svg width="18" height="22" viewBox="0 0 18 22" fill="none" xmlns="http://www.w3.org/2000/svg">
<path d="M9.68 5.87994C10.38 5.63994 10.9 4.97994 10.98 4.23994C11.03 3.76994 10.93 3.32994 10.7 2.96994L9.42 0.749941C9.23 0.419941 8.75 0.419941 8.55 0.749941L7.27 2.96994C7.1 3.26994 7 3.61994 7 3.99994C7 5.31994 8.3 6.34994 9.68 5.87994ZM13.53 15.9199L12.53 14.9199L11.45 15.9899C10.15 17.2899 7.87 17.2999 6.56 15.9899L5.49 14.9199L4.4 15.9899C3.75 16.6399 2.88 16.9999 1.96 16.9999C1.23 16.9999 0.56 16.7699 0 16.3899V19.9999C0 21.0999 0.9 21.9999 2 21.9999H16C17.1 21.9999 18 21.0999 18 19.9999V16.3899C17.25 16.8999 16.29 17.1399 15.26 16.9099C14.6 16.7699 14.01 16.3999 13.53 15.9199ZM15 8.99994H10V7.99994C10 7.44994 9.55 6.99994 9 6.99994C8.45 6.99994 8 7.44994 8 7.99994V8.99994H3C1.34 8.99994 0 10.3399 0 11.9999V13.4599C0 14.3099 0.5 15.1299 1.31 15.3999C2.04 15.6399 2.83 15.4599 3.34 14.9399L5.48 12.8099L7.61 14.9399C8.37 15.6999 9.62 15.6999 10.38 14.9399L12.52 12.8099L14.65 14.9399C15.08 15.3699 15.68 15.5699 16.3 15.4899C17.29 15.3599 17.99 14.4299 17.99 13.4299V12.0099C18 10.3399 16.66 8.99994 15 8.99994Z" fill="#006633"/>
</svg>
