<svg width="20" height="17" viewBox="0 0 20 17" fill="none" xmlns="http://www.w3.org/2000/svg">
<path d="M17.0001 6.29997V1.99997C17.0001 1.44997 16.5501 0.999971 16.0001 0.999971H15.0001C14.4501 0.999971 14.0001 1.44997 14.0001 1.99997V3.59997L10.6701 0.599971C10.2901 0.259971 9.7101 0.259971 9.3301 0.599971L0.970098 8.12997C0.630098 8.42997 0.840098 8.99997 1.3001 8.99997H3.0001V16C3.0001 16.55 3.4501 17 4.0001 17H7.0001C7.5501 17 8.0001 16.55 8.0001 16V11H12.0001V16C12.0001 16.55 12.4501 17 13.0001 17H16.0001C16.5501 17 17.0001 16.55 17.0001 16V8.99997H18.7001C19.1601 8.99997 19.3801 8.42997 19.0301 8.12997L17.0001 6.29997ZM8.0001 6.99997C8.0001 5.89997 8.9001 4.99997 10.0001 4.99997C11.1001 4.99997 12.0001 5.89997 12.0001 6.99997H8.0001Z" fill="#006633"/>
</svg>
