<svg width="16" height="18" viewBox="0 0 16 18" fill="none" xmlns="http://www.w3.org/2000/svg">
<path d="M3.32408 7.79C4.55021 10.62 6.52566 12.94 8.93536 14.38L10.8086 12.18C11.047 11.9 11.3791 11.82 11.6771 11.93C12.6308 12.3 13.6526 12.5 14.7169 12.5C14.9428 12.5 15.1594 12.6054 15.319 12.7929C15.4787 12.9804 15.5684 13.2348 15.5684 13.5V17C15.5684 17.2652 15.4787 17.5196 15.319 17.7071C15.1594 17.8946 14.9428 18 14.7169 18C10.8779 18 7.19604 16.2089 4.4814 13.0208C1.76677 9.8327 0.241699 5.50868 0.241699 1C0.241699 0.734784 0.331409 0.48043 0.491093 0.292893C0.650778 0.105357 0.867356 0 1.09318 0H4.07338C4.29921 0 4.51579 0.105357 4.67547 0.292893C4.83516 0.48043 4.92487 0.734784 4.92487 1C4.92487 2.25 5.09516 3.45 5.41021 4.57C5.50388 4.92 5.43576 5.31 5.19734 5.59L3.32408 7.79Z" fill="#006633"/>
</svg>
