<svg width="23" height="21" viewBox="0 0 23 21" fill="none" xmlns="http://www.w3.org/2000/svg">
<path d="M20.5 17V18H2.5V17L4.5 15V9C4.5 5.9 6.53 3.17 9.5 2.29C9.5 2.19 9.5 2.1 9.5 2C9.5 1.46957 9.71071 0.960859 10.0858 0.585786C10.4609 0.210714 10.9696 0 11.5 0C12.0304 0 12.5391 0.210714 12.9142 0.585786C13.2893 0.960859 13.5 1.46957 13.5 2C13.5 2.1 13.5 2.19 13.5 2.29C16.47 3.17 18.5 5.9 18.5 9V15L20.5 17ZM13.5 19C13.5 19.5304 13.2893 20.0391 12.9142 20.4142C12.5391 20.7893 12.0304 21 11.5 21C10.9696 21 10.4609 20.7893 10.0858 20.4142C9.71071 20.0391 9.5 19.5304 9.5 19H13.5ZM19.25 1.19L17.83 2.61C19.54 4.3 20.5 6.6 20.5 9H22.5C22.5 6.07 21.34 3.25 19.25 1.19ZM0.5 9H2.5C2.5 6.6 3.46 4.3 5.17 2.61L3.75 1.19C1.66 3.25 0.5 6.07 0.5 9Z" fill="white"/>
</svg>
