<svg width="44" height="44" viewBox="0 0 44 44" fill="none" xmlns="http://www.w3.org/2000/svg">
<path fill-rule="evenodd" clip-rule="evenodd" d="M22 0C9.84974 0 0 9.84974 0 22C0 34.1503 9.84974 44 22 44C34.1503 44 44 34.1503 44 22C44 9.84974 34.1503 0 22 0ZM17.163 10.3376C18.4146 10.2806 18.8145 10.2667 22.0011 10.2667H21.9974C25.185 10.2667 25.5835 10.2806 26.835 10.3376C28.0842 10.3948 28.9373 10.5925 29.6853 10.8827C30.4577 11.1821 31.1104 11.583 31.7631 12.2357C32.4158 12.8879 32.8167 13.5425 33.1173 14.3142C33.4058 15.0603 33.6038 15.9129 33.6624 17.162C33.7187 18.4136 33.7333 18.8135 33.7333 22.0001C33.7333 25.1867 33.7187 25.5857 33.6624 26.8372C33.6038 28.0859 33.4058 28.9387 33.1173 29.685C32.8167 30.4565 32.4158 31.1111 31.7631 31.7633C31.1112 32.416 30.4575 32.8179 29.686 33.1176C28.9395 33.4077 28.0859 33.6055 26.8368 33.6627C25.5852 33.7196 25.1865 33.7336 21.9996 33.7336C18.8133 33.7336 18.4136 33.7196 17.162 33.6627C15.9131 33.6055 15.0603 33.4077 14.3137 33.1176C13.5425 32.8179 12.8879 32.416 12.2359 31.7633C11.5835 31.1111 11.1826 30.4565 10.8827 29.6848C10.5928 28.9387 10.395 28.0861 10.3376 26.837C10.2808 25.5854 10.2667 25.1867 10.2667 22.0001C10.2667 18.8135 10.2813 18.4133 10.3373 17.1618C10.3935 15.9131 10.5915 15.0603 10.8824 14.314C11.1831 13.5425 11.584 12.8879 12.2367 12.2357C12.8888 11.5833 13.5435 11.1824 14.3152 10.8827C15.0612 10.5925 15.9139 10.3948 17.163 10.3376Z" fill="#006633"/>
</svg>
