<svg width="24" height="25" viewBox="0 0 24 25" fill="none" xmlns="http://www.w3.org/2000/svg">
<path fill-rule="evenodd" clip-rule="evenodd" d="M18.865 0.834735C19.291 0.388422 19.9817 0.388422 20.4078 0.834735L23.6805 4.26331C24.1065 4.70962 24.1065 5.43324 23.6805 5.87955C23.2545 6.32586 22.5637 6.32586 22.1377 5.87955L20.7273 4.40196V16.5C20.7273 17.1312 20.2389 17.6429 19.6364 17.6429H8.72727C8.12478 17.6429 7.63636 17.1312 7.63636 16.5C7.63636 15.8688 8.12478 15.3571 8.72727 15.3571H18.5455V4.40196L17.135 5.87955C16.709 6.32586 16.0183 6.32586 15.5922 5.87955C15.1662 5.43324 15.1662 4.70962 15.5922 4.26331L18.865 0.834735ZM3.27273 10.7857C3.27273 10.1545 3.76114 9.64286 4.36364 9.64286H15.2727C15.8752 9.64286 16.3636 10.1545 16.3636 10.7857C16.3636 11.4169 15.8752 11.9286 15.2727 11.9286H5.45455V20.598L6.86497 19.1205C7.291 18.6741 7.98173 18.6741 8.40775 19.1205C8.83378 19.5668 8.83378 20.2904 8.40775 20.7367L5.13503 24.1653C4.709 24.6116 4.01827 24.6116 3.59225 24.1653L0.31952 20.7367C-0.106507 20.2904 -0.106507 19.5668 0.31952 19.1205C0.745546 18.6741 1.43627 18.6741 1.8623 19.1205L3.27273 20.598V10.7857Z" fill="white"/>
</svg>
