<svg width="28" height="28" viewBox="0 0 28 28" fill="none" xmlns="http://www.w3.org/2000/svg">
<path d="M14.0003 24.668C16.8293 24.668 19.5424 23.5442 21.5428 21.5438C23.5432 19.5434 24.667 16.8303 24.667 14.0013C24.667 11.1723 23.5432 8.45922 21.5428 6.45883C19.5424 4.45844 16.8293 3.33464 14.0003 3.33464C11.1714 3.33464 8.45824 4.45844 6.45785 6.45883C4.45747 8.45922 3.33366 11.1723 3.33366 14.0013C3.33366 16.8303 4.45747 19.5434 6.45785 21.5438C8.45824 23.5442 11.1714 24.668 14.0003 24.668ZM14.0003 0.667969C15.7513 0.667969 17.4851 1.01285 19.1028 1.68291C20.7204 2.35297 22.1903 3.3351 23.4284 4.57321C24.6665 5.81133 25.6487 7.28118 26.3187 8.89886C26.9888 10.5165 27.3337 12.2503 27.3337 14.0013C27.3337 17.5375 25.9289 20.9289 23.4284 23.4294C20.9279 25.9299 17.5365 27.3346 14.0003 27.3346C6.62699 27.3346 0.666992 21.3346 0.666992 14.0013C0.666992 10.4651 2.07175 7.0737 4.57224 4.57321C7.07272 2.07273 10.4641 0.667969 14.0003 0.667969ZM14.667 7.33464V14.3346L20.667 17.8946L19.667 19.5346L12.667 15.3346V7.33464H14.667Z" fill="white"/>
</svg>
