<svg width="28" height="28" viewBox="0 0 28 28" fill="none" xmlns="http://www.w3.org/2000/svg">
<path d="M11.4398 12.4803C11.5065 12.0403 11.6532 11.6537 11.8398 11.3337C11.9998 10.987 12.2932 10.707 12.6265 10.4937C12.9465 10.2937 13.3332 10.2003 13.8398 10.187C14.1465 10.2003 14.4265 10.2537 14.6665 10.3603C14.9465 10.4803 15.1865 10.667 15.3732 10.8403C15.5598 11.0403 15.7065 11.2803 15.8265 11.547C15.9465 11.8137 15.9998 12.107 15.9998 12.4003H18.3998C18.3732 11.7737 18.2532 11.2003 17.9998 10.667C17.7998 10.1603 17.4932 9.70699 17.0932 9.33366C16.6665 8.96033 16.2132 8.66699 15.6532 8.45366C15.0932 8.24033 14.4798 8.14699 13.7998 8.14699C12.9332 8.14699 12.1732 8.29366 11.5332 8.60033C10.8932 8.90699 10.3598 9.33366 9.93317 9.82699C9.5065 10.347 9.1865 10.947 8.9865 11.6403C8.7865 12.3337 8.6665 13.0537 8.6665 13.827V14.187C8.6665 14.9603 8.77317 15.6803 8.97317 16.3737C9.17317 17.067 9.49317 17.667 9.91984 18.1737C10.3465 18.667 10.8798 19.0937 11.5198 19.387C12.1598 19.6803 12.9198 19.8403 13.7865 19.8403C14.4132 19.8403 14.9998 19.7337 15.5465 19.5337C16.0932 19.3337 16.5732 19.0537 16.9865 18.667C17.3998 18.3337 17.7332 17.9203 17.9998 17.4403C18.2132 16.9603 18.3598 16.4537 18.3732 15.907H15.9998C15.9998 16.187 15.9065 16.4403 15.7865 16.667C15.6665 16.9203 15.5065 17.1203 15.3332 17.2937C15.1065 17.467 14.8798 17.6003 14.6132 17.6937C14.3598 17.787 14.0932 17.8137 13.8132 17.827C13.3332 17.8137 12.9332 17.7203 12.6265 17.5203C12.2932 17.3337 11.9998 17.027 11.8398 16.667C11.6532 16.3603 11.5065 15.9603 11.4398 15.5203C11.3732 15.0803 11.3332 14.627 11.3332 14.187V13.827C11.3332 13.3337 11.3732 12.9203 11.4398 12.4803ZM13.9998 0.666992C12.2489 0.666992 10.5151 1.01187 8.89739 1.68193C7.27972 2.35199 5.80986 3.33412 4.57175 4.57224C2.07126 7.07272 0.666504 10.4641 0.666504 14.0003C0.666504 17.5365 2.07126 20.9279 4.57175 23.4284C5.80986 24.6665 7.27972 25.6487 8.89739 26.3187C10.5151 26.9888 12.2489 27.3337 13.9998 27.3337C17.5361 27.3337 20.9274 25.9289 23.4279 23.4284C25.9284 20.9279 27.3332 17.5365 27.3332 14.0003C27.3332 12.2494 26.9883 10.5156 26.3182 8.89788C25.6482 7.2802 24.666 5.81035 23.4279 4.57224C22.1898 3.33412 20.72 2.35199 19.1023 1.68193C17.4846 1.01187 15.7508 0.666992 13.9998 0.666992ZM13.9998 24.667C8.11984 24.667 3.33317 19.8803 3.33317 14.0003C3.33317 8.12033 8.11984 3.33366 13.9998 3.33366C19.8798 3.33366 24.6665 8.12033 24.6665 14.0003C24.6665 19.8803 19.8798 24.667 13.9998 24.667Z" fill="white"/>
</svg>
