<svg width="58" height="28" viewBox="0 0 58 28" fill="none" xmlns="http://www.w3.org/2000/svg">
<path d="M27.8447 3.99674V27.3337H50.8507C55.7093 26.9605 57.8891 23.6882 57.8891 19.6695C57.8891 15.4212 54.9477 12.0053 51.0083 12.0053C50.0103 12.0053 49.1699 12.235 48.3032 12.6369C47.6729 5.91995 42.4467 0.666992 36.0123 0.666992C32.9396 0.666992 30.0245 1.93 27.8447 3.99674ZM25.5336 6.92462C24.7457 6.40793 23.9053 6.00607 22.9861 5.80513V27.3337H26.6366V5.34586C26.2426 5.80513 25.875 6.37923 25.5336 6.92462ZM19.3618 5.37456V27.3337H21.778V5.46068C21.279 5.37456 20.78 5.34586 20.2548 5.34586C19.9396 5.34586 19.6507 5.34586 19.3618 5.37456ZM14.5558 7.24037V27.3337H16.9457V5.91995C16.079 6.2357 15.2649 6.69498 14.5558 7.24037ZM10.1699 14.4165C10.0123 14.4165 9.85476 14.2443 9.67092 14.1582V27.3337H12.0871V9.70897C11.1154 11.0868 10.4588 12.723 10.1699 14.4165ZM4.81234 13.6128V27.0753C5.36385 27.2475 5.99416 27.3337 6.67698 27.3337H7.25476V13.3832C7.04466 13.3545 6.83456 13.3258 6.67698 13.3258C5.99416 13.3258 5.36385 13.4406 4.81234 13.6128ZM0.111328 20.3297C0.111328 22.4826 1.00426 24.3771 2.39618 25.6688V15.0193C1.00426 16.2824 0.111328 18.2056 0.111328 20.3297Z" fill="white"/>
</svg>
