<svg width="1024" height="93" viewBox="0 0 1024 93" fill="none" xmlns="http://www.w3.org/2000/svg">
<g clip-path="url(#clip0_1426_3682)">
<path d="M160 0L133.333 46.5H186.667L160 0Z" fill="white"/>
<path d="M133.333 46.5L106.667 93H160L133.333 46.5Z" fill="#E5E5E5"/>
<path d="M0.000160217 0L26.6668 46.5H-26.6665L0.000160217 0Z" fill="#1A1A1A"/>
<path d="M186.667 46.5L160 0L213.333 0L186.667 46.5Z" fill="black"/>
<path d="M160 93L133.333 46.5L186.667 46.5L160 93Z" fill="#1A1A1A"/>
<path d="M79.9998 46.5L53.3332 0L106.667 0L79.9998 46.5Z" fill="#4C9D34"/>
<path d="M53.3333 93L26.6667 46.5L80 46.5L53.3333 93Z" fill="#55AE3A"/>
<path d="M0.000160217 93L26.6668 46.5L-26.6665 46.5L0.000160217 93Z" fill="#006633"/>
<path d="M133.333 46.5L160 0L106.667 0L133.333 46.5Z" fill="#E5E5E5"/>
<path d="M106.667 93L133.333 46.5L80 46.5L106.667 93Z" fill="white"/>
<path d="M26.6668 46.5L0.000164032 0L53.3335 0L26.6668 46.5Z" fill="#1A7547"/>
<path d="M80.0002 46.5L106.667 93H53.3335L80.0002 46.5Z" fill="#4C9D34"/>
<path d="M106.667 0L133.333 46.5H80L106.667 0Z" fill="#55AE3A"/>
<path d="M53.3332 0L79.9998 46.5H26.6665L53.3332 0Z" fill="#006633"/>
<path d="M26.6667 46.5L53.3333 93H0L26.6667 46.5Z" fill="#1A7547"/>
<path d="M373.333 0L346.667 46.5H400L373.333 0Z" fill="white"/>
<path d="M586.667 0L560 46.5H613.333L586.667 0Z" fill="white"/>
<path d="M800 0L773.334 46.5H826.667L800 0Z" fill="white"/>
<path d="M1013.33 0L986.667 46.5H1040L1013.33 0Z" fill="white"/>
<path d="M346.667 46.5L320 93H373.333L346.667 46.5Z" fill="#E5E5E5"/>
<path d="M560 46.5L533.333 93H586.667L560 46.5Z" fill="#E5E5E5"/>
<path d="M773.333 46.5L746.667 93H800L773.333 46.5Z" fill="#E5E5E5"/>
<path d="M986.666 46.5L960 93H1013.33L986.666 46.5Z" fill="#E5E5E5"/>
<path d="M426.667 0L453.333 46.5H400L426.667 0Z" fill="#1A1A1A"/>
<path d="M640 0L666.667 46.5H613.333L640 0Z" fill="#1A1A1A"/>
<path d="M213.333 0L240 46.5H186.667L213.333 0Z" fill="#1A1A1A"/>
<path d="M853.334 0L880 46.5H826.667L853.334 0Z" fill="#1A1A1A"/>
<path d="M400 46.5L426.667 93H373.333L400 46.5Z" fill="black"/>
<path d="M613.333 46.5L640 93H586.667L613.333 46.5Z" fill="black"/>
<path d="M186.667 46.5L213.333 93H160L186.667 46.5Z" fill="black"/>
<path d="M826.667 46.5L853.333 93H800L826.667 46.5Z" fill="black"/>
<path d="M1040 46.5L1066.67 93H1013.33L1040 46.5Z" fill="black"/>
<path d="M400 46.5L373.333 0L426.667 0L400 46.5Z" fill="black"/>
<path d="M613.333 46.5L586.667 0L640 0L613.333 46.5Z" fill="black"/>
<path d="M826.666 46.5L800 0L853.333 0L826.666 46.5Z" fill="black"/>
<path d="M1040 46.5L1013.33 0L1066.67 0L1040 46.5Z" fill="black"/>
<path d="M373.333 93L346.667 46.5L400 46.5L373.333 93Z" fill="#1A1A1A"/>
<path d="M586.667 93L560 46.5L613.333 46.5L586.667 93Z" fill="#1A1A1A"/>
<path d="M800 93L773.334 46.5L826.667 46.5L800 93Z" fill="#1A1A1A"/>
<path d="M1013.33 93L986.667 46.5L1040 46.5L1013.33 93Z" fill="#1A1A1A"/>
<path d="M293.333 46.5L266.667 0L320 0L293.333 46.5Z" fill="#4C9D34"/>
<path d="M506.667 46.5L480 0L533.333 0L506.667 46.5Z" fill="#4C9D34"/>
<path d="M720 46.5L693.334 0L746.667 0L720 46.5Z" fill="#4C9D34"/>
<path d="M933.333 46.5L906.667 0L960 0L933.333 46.5Z" fill="#4C9D34"/>
<path d="M266.667 93L240 46.5L293.333 46.5L266.667 93Z" fill="#55AE3A"/>
<path d="M480 93L453.333 46.5L506.667 46.5L480 93Z" fill="#55AE3A"/>
<path d="M693.333 93L666.667 46.5L720 46.5L693.333 93Z" fill="#55AE3A"/>
<path d="M906.666 93L880 46.5L933.333 46.5L906.666 93Z" fill="#55AE3A"/>
<path d="M426.667 93L453.333 46.5L400 46.5L426.667 93Z" fill="#006633"/>
<path d="M640 93L666.667 46.5L613.333 46.5L640 93Z" fill="#006633"/>
<path d="M213.333 93L240 46.5L186.667 46.5L213.333 93Z" fill="#006633"/>
<path d="M853.334 93L880 46.5L826.667 46.5L853.334 93Z" fill="#006633"/>
<path d="M346.667 46.5L373.333 0L320 0L346.667 46.5Z" fill="#E5E5E5"/>
<path d="M560 46.5L586.667 0L533.333 0L560 46.5Z" fill="#E5E5E5"/>
<path d="M133.333 46.5L160 0L106.667 0L133.333 46.5Z" fill="#E5E5E5"/>
<path d="M773.334 46.5L800 0L746.667 0L773.334 46.5Z" fill="#E5E5E5"/>
<path d="M986.667 46.5L1013.33 0L960 0L986.667 46.5Z" fill="#E5E5E5"/>
<path d="M320 93L346.667 46.5L293.333 46.5L320 93Z" fill="white"/>
<path d="M533.333 93L560 46.5L506.667 46.5L533.333 93Z" fill="white"/>
<path d="M746.667 93L773.333 46.5L720 46.5L746.667 93Z" fill="white"/>
<path d="M453.333 46.5L426.667 0L480 0L453.333 46.5Z" fill="#1A7547"/>
<path d="M666.666 46.5L640 0L693.333 0L666.666 46.5Z" fill="#1A7547"/>
<path d="M240 46.5L213.333 0L266.667 0L240 46.5Z" fill="#1A7547"/>
<path d="M880 46.5L853.334 0L906.667 0L880 46.5Z" fill="#1A7547"/>
<path d="M293.333 46.5L320 93H266.667L293.333 46.5Z" fill="#4C9D34"/>
<path d="M506.667 46.5L533.333 93H480L506.667 46.5Z" fill="#4C9D34"/>
<path d="M720 46.5L746.666 93H693.333L720 46.5Z" fill="#4C9D34"/>
<path d="M933.334 46.5L960 93H906.667L933.334 46.5Z" fill="#4C9D34"/>
<path d="M320 0L346.667 46.5H293.333L320 0Z" fill="#55AE3A"/>
<path d="M533.333 0L560 46.5H506.667L533.333 0Z" fill="#55AE3A"/>
<path d="M746.667 0L773.333 46.5H720L746.667 0Z" fill="#55AE3A"/>
<path d="M960 0L986.666 46.5H933.333L960 0Z" fill="#55AE3A"/>
<path d="M266.667 0L293.333 46.5H240L266.667 0Z" fill="#006633"/>
<path d="M480 0L506.667 46.5H453.333L480 0Z" fill="#006633"/>
<path d="M693.333 0L720 46.5H666.667L693.333 0Z" fill="#006633"/>
<path d="M906.667 0L933.333 46.5H880L906.667 0Z" fill="#006633"/>
<path d="M240 46.5L266.667 93H213.333L240 46.5Z" fill="#1A7547"/>
<path d="M453.333 46.5L480 93H426.667L453.333 46.5Z" fill="#1A7547"/>
<path d="M666.667 46.5L693.333 93H640L666.667 46.5Z" fill="#1A7547"/>
<path d="M880 46.5L906.666 93H853.333L880 46.5Z" fill="#1A7547"/>
</g>
<defs>
<clipPath id="clip0_1426_3682">
<rect width="1024" height="93" fill="white"/>
</clipPath>
</defs>
</svg>
