<svg width="44" height="44" viewBox="0 0 44 44" fill="none" xmlns="http://www.w3.org/2000/svg">
<path d="M34.4553 19.6776C27.6998 15.6664 16.4053 15.2442 9.96645 17.2498C8.91089 17.5665 7.85534 16.9331 7.53867 15.9831C7.22201 14.9276 7.85534 13.872 8.80534 13.5553C16.2998 11.3387 28.6498 11.7609 36.4609 16.4053C37.4109 16.9331 37.7276 18.1998 37.1998 19.1498C36.672 19.8887 35.4053 20.2053 34.4553 19.6776ZM34.2442 25.5887C33.7164 26.3276 32.7665 26.6442 32.0276 26.1164C26.3276 22.6331 17.672 21.5776 11.022 23.6887C10.1776 23.8998 9.22756 23.4776 9.01645 22.6331C8.80534 21.7887 9.22756 20.8387 10.072 20.6276C17.7776 18.3053 27.2776 19.4664 33.822 23.4776C34.4553 23.7942 34.772 24.8498 34.2442 25.5887ZM31.7109 31.3942C31.2887 32.0276 30.5498 32.2387 29.9165 31.8164C24.9553 28.7553 18.7276 28.122 11.3387 29.8109C10.5998 30.022 9.96645 29.4942 9.75534 28.8609C9.54423 28.122 10.072 27.4887 10.7053 27.2776C18.7276 25.4831 25.6942 26.222 31.1831 29.5998C31.922 29.9165 32.0276 30.7609 31.7109 31.3942ZM21.9998 0.888672C19.2274 0.888672 16.4822 1.43473 13.9209 2.49566C11.3596 3.55659 9.03232 5.11163 7.07197 7.07197C3.11287 11.0311 0.888672 16.4008 0.888672 21.9998C0.888672 27.5988 3.11287 32.9685 7.07197 36.9276C9.03232 38.8879 11.3596 40.443 13.9209 41.5039C16.4822 42.5648 19.2274 43.1109 21.9998 43.1109C27.5988 43.1109 32.9685 40.8867 36.9276 36.9276C40.8867 32.9685 43.1109 27.5988 43.1109 21.9998C43.1109 19.2274 42.5648 16.4822 41.5039 13.9209C40.443 11.3596 38.8879 9.03232 36.9276 7.07197C34.9672 5.11163 32.64 3.55659 30.0787 2.49566C27.5173 1.43473 24.7721 0.888672 21.9998 0.888672V0.888672Z" fill="white"/>
</svg>
