<svg width="44" height="44" viewBox="0 0 44 44" fill="none" xmlns="http://www.w3.org/2000/svg">
<path fill-rule="evenodd" clip-rule="evenodd" d="M22.0023 0.666992C16.2085 0.666992 15.4814 0.692326 13.2058 0.795882C10.9347 0.899883 9.38442 1.25944 8.02796 1.787C6.62483 2.3319 5.4346 3.0608 4.24881 4.24703C3.06213 5.43282 2.33323 6.62305 1.78656 8.02573C1.25767 9.38264 0.897661 10.9333 0.795438 13.2036C0.693659 15.4791 0.666992 16.2067 0.666992 22.0005C0.666992 27.7944 0.69277 28.5193 0.795882 30.7949C0.900328 33.066 1.25989 34.6162 1.787 35.9727C2.33234 37.3758 3.06124 38.5661 4.24747 39.7518C5.43282 40.9385 6.62305 41.6692 8.02529 42.2141C9.38264 42.7416 10.9333 43.1012 13.204 43.2052C15.4796 43.3088 16.2063 43.3341 21.9997 43.3341C27.7939 43.3341 28.5188 43.3088 30.7944 43.2052C33.0656 43.1012 34.6176 42.7416 35.9749 42.2141C37.3776 41.6692 38.5661 40.9385 39.7514 39.7518C40.9381 38.5661 41.667 37.3758 42.2136 35.9731C42.7381 34.6162 43.0981 33.0656 43.2048 30.7953C43.307 28.5197 43.3337 27.7944 43.3337 22.0005C43.3337 16.2067 43.307 15.4796 43.2048 13.204C43.0981 10.9329 42.7381 9.38264 42.2136 8.02618C41.667 6.62305 40.9381 5.43282 39.7514 4.24703C38.5647 3.06035 37.378 2.33145 35.9736 1.787C34.6136 1.25944 33.0624 0.899883 30.7913 0.795882C28.5157 0.692326 27.7913 0.666992 21.9957 0.666992H22.0023ZM20.0884 4.51142C20.6564 4.51053 21.2902 4.51142 22.0022 4.51142C27.6983 4.51142 28.3734 4.53186 30.6228 4.63408C32.7028 4.7292 33.8317 5.07676 34.5837 5.36876C35.5793 5.75543 36.2891 6.21766 37.0353 6.96433C37.782 7.71101 38.2442 8.42212 38.6317 9.41769C38.9237 10.1688 39.2717 11.2977 39.3664 13.3777C39.4686 15.6266 39.4909 16.3022 39.4909 21.9956C39.4909 27.689 39.4686 28.3646 39.3664 30.6135C39.2713 32.6935 38.9237 33.8224 38.6317 34.5735C38.2451 35.5691 37.782 36.278 37.0353 37.0242C36.2886 37.7709 35.5797 38.2331 34.5837 38.6198C33.8326 38.9131 32.7028 39.2598 30.6228 39.3549C28.3739 39.4571 27.6983 39.4793 22.0022 39.4793C16.3057 39.4793 15.6306 39.4571 13.3817 39.3549C11.3017 39.2589 10.1728 38.9113 9.42033 38.6193C8.42476 38.2327 7.71364 37.7704 6.96697 37.0238C6.22029 36.2771 5.75807 35.5677 5.37051 34.5717C5.0785 33.8206 4.7305 32.6917 4.63583 30.6117C4.53361 28.3628 4.51316 27.6872 4.51316 21.9903C4.51316 16.2933 4.53361 15.6213 4.63583 13.3724C4.73094 11.2924 5.0785 10.1635 5.37051 9.41147C5.75718 8.4159 6.22029 7.70478 6.96697 6.95811C7.71364 6.21143 8.42476 5.74921 9.42033 5.36165C10.1723 5.06831 11.3017 4.72164 13.3817 4.62608C15.3497 4.53719 16.1124 4.51053 20.0884 4.50608V4.51142ZM33.3899 8.05368C31.9766 8.05368 30.8299 9.19903 30.8299 10.6128C30.8299 12.0262 31.9766 13.1728 33.3899 13.1728C34.8033 13.1728 35.95 12.0262 35.95 10.6128C35.95 9.19947 34.8033 8.05368 33.3899 8.05368ZM22.0024 11.0448C15.9521 11.0448 11.0467 15.9502 11.0467 22.0005C11.0467 28.0508 15.9521 32.9539 22.0024 32.9539C28.0527 32.9539 32.9563 28.0508 32.9563 22.0005C32.9563 15.9502 28.0527 11.0448 22.0024 11.0448ZM22.0023 14.8893C25.9294 14.8893 29.1135 18.0729 29.1135 22.0005C29.1135 25.9276 25.9294 29.1117 22.0023 29.1117C18.0747 29.1117 14.8911 25.9276 14.8911 22.0005C14.8911 18.0729 18.0747 14.8893 22.0023 14.8893Z" fill="white"/>
</svg>
