<svg width="44" height="31" viewBox="0 0 44 31" fill="none" xmlns="http://www.w3.org/2000/svg">
<path fill-rule="evenodd" clip-rule="evenodd" d="M38.6697 1.24856C40.5055 1.75233 41.9514 3.2367 42.442 5.12171C43.3337 8.53807 43.3337 15.6663 43.3337 15.6663C43.3337 15.6663 43.3337 22.7944 42.442 26.211C41.9514 28.096 40.5055 29.5804 38.6697 30.0844C35.3426 30.9997 22.0003 30.9997 22.0003 30.9997C22.0003 30.9997 8.65802 30.9997 5.33075 30.0844C3.49487 29.5804 2.04905 28.096 1.55839 26.211C0.666992 22.7944 0.666992 15.6663 0.666992 15.6663C0.666992 15.6663 0.666992 8.53807 1.55839 5.12171C2.04905 3.2367 3.49487 1.75233 5.33075 1.24856C8.65802 0.333008 22.0003 0.333008 22.0003 0.333008C22.0003 0.333008 35.3426 0.333008 38.6697 1.24856ZM18.0004 9.6662V22.9995L28.667 16.3331L18.0004 9.6662Z" fill="white"/>
</svg>
